<?xml version="1.0" standalone="no"?>
<!DOCTYPE svg PUBLIC "-//W3C//DTD SVG 20010904//EN"
 "http://www.w3.org/TR/2001/REC-SVG-20010904/DTD/svg10.dtd">
<svg version="1.0" xmlns="http://www.w3.org/2000/svg"
 width="100.000000pt" height="100.000000pt" viewBox="0 0 100.000000 100.000000"
 preserveAspectRatio="xMidYMid meet">
<metadata>
Created by potrace 1.14, written by Peter Selinger 2001-2017
</metadata>
<g transform="translate(0.000000,100.000000) scale(0.100000,-0.100000)"
fill="#000000" stroke="none">
<path d="M370 940 c-237 -71 -376 -318 -315 -555 22 -81 58 -143 121 -207 64
-64 127 -101 209 -123 324 -84 627 200 566 530 -23 127 -117 257 -229 318
-104 56 -240 71 -352 37z m277 -48 c254 -97 351 -406 196 -630 -76 -111 -192
-173 -332 -177 -281 -9 -481 242 -417 525 20 88 108 201 196 253 99 57 251 70
357 29z"/>
<path d="M455 683 c-36 -9 -72 -42 -94 -85 -16 -33 -19 -56 -17 -110 4 -82 34
-135 92 -163 45 -21 126 -15 164 13 37 27 61 80 58 127 l-3 40 -70 -1 c-63 -1
-70 -3 -73 -21 -3 -17 2 -20 30 -21 66 0 68 -1 68 -27 0 -55 -91 -100 -147
-73 -43 21 -73 73 -73 130 0 90 40 148 107 153 47 3 84 -15 103 -49 16 -30 50
-35 50 -7 0 27 -39 71 -76 87 -33 14 -80 16 -119 7z"/>
</g>
</svg>
